<svg xmlns="http://www.w3.org/2000/svg" width="375" height="51.057" viewBox="0 0 375 51.057">
  <path id="benzinga" d="M53.924,50.818h36V41.339H64.836V29.71H85.626V20.232H64.836V9.479h25.25V0H53.924Zm79.333-18.8L109.68,0H93.431l5.1,6.452V50.977h10.833V17.6l24.373,33.215H144.17V0H133.257ZM37.516,24.692c4.779-.876,8.762-5.337,8.762-11.629C46.278,6.292,41.339,0,31.542,0H0L4.938,6.292V50.9H32.657c9.8,0,14.895-6.133,14.895-13.78-.239-6.292-4.54-11.709-10.036-12.426ZM15.771,9.558h13.62c3.664,0,5.974,2.151,5.974,5.337s-2.31,5.337-5.974,5.337H15.771Zm14.1,31.861h-14.1V29.71h14.1c4.142,0,6.452,2.629,6.452,5.815C36.321,39.189,33.852,41.339,29.869,41.419Zm273.444-9.4h5.655v5.974a17.127,17.127,0,0,1-10.434,3.823c-9.08,0-15.452-6.93-15.452-16.249s6.452-16.249,15.452-16.249a13.875,13.875,0,0,1,11.629,6.452l8.6-4.779C315.1,5.177,308.65,0,298.455,0,284.038,0,272.09,9.956,272.09,25.409s11.788,25.409,26.365,25.409a27.184,27.184,0,0,0,20.789-9.16V22.86H295.986l7.328,9.16Zm-48.986,0L230.671,0H214.5l5.018,6.452V50.977h10.912V17.6l24.373,33.215H265.16V0H254.328ZM355.246,0H334.3l5.018,6.452-.876,2.469L322.191,50.977h12.266l3.186-8.6h21.9l3.186,8.6H375ZM340.431,32.816l7.965-21.9,7.965,21.9ZM197.3,0h10.912V51.057H197.3Zm-8.682,8.762V0H150.3V9.479h24.055L150.3,42.136v8.682h38.711V41.339H164.4Z" fill="#093451"/>
</svg>
