<svg id="cryptonews" xmlns="http://www.w3.org/2000/svg" xmlns:xlink="http://www.w3.org/1999/xlink" width="429.246" height="99.057" viewBox="0 0 429.246 99.057">
  <defs>
    <linearGradient id="linear-gradient" y1="0.5" x2="1" y2="0.5" gradientUnits="objectBoundingBox">
      <stop offset="0" stop-color="#120812"/>
      <stop offset="1" stop-color="#0d051a"/>
    </linearGradient>
    <linearGradient id="linear-gradient-2" y1="0.5" x2="1" y2="0.5" gradientUnits="objectBoundingBox">
      <stop offset="0" stop-color="#ef4b95"/>
      <stop offset="1" stop-color="#f64b7e"/>
    </linearGradient>
    <linearGradient id="linear-gradient-4" y1="0.5" x2="1" y2="0.5" gradientUnits="objectBoundingBox">
      <stop offset="0" stop-color="#87002d"/>
      <stop offset="1" stop-color="#3b016e"/>
    </linearGradient>
    <linearGradient id="linear-gradient-5" y1="0.5" x2="1" y2="0.5" gradientUnits="objectBoundingBox">
      <stop offset="0" stop-color="#2b002d"/>
      <stop offset="1" stop-color="#14004f"/>
    </linearGradient>
    <linearGradient id="linear-gradient-6" y1="0.5" x2="1" y2="0.5" gradientUnits="objectBoundingBox">
      <stop offset="0" stop-color="#e60015"/>
      <stop offset="1" stop-color="#8e0162"/>
    </linearGradient>
    <linearGradient id="linear-gradient-10" y1="0.5" x2="1" y2="0.5" gradientUnits="objectBoundingBox">
      <stop offset="0" stop-color="#f61749"/>
      <stop offset="1" stop-color="#b81789"/>
    </linearGradient>
  </defs>
  <g id="Group_45" data-name="Group 45" transform="translate(111.864 25.218)">
    <path id="Path_194" data-name="Path 194" d="M42.457,39.521a3.852,3.852,0,0,0,3.025-1.114,4.8,4.8,0,0,0,.982-3.273H55.71l.062.182a10.7,10.7,0,0,1-3.661,8.667,14.069,14.069,0,0,1-9.658,3.347q-7.355,0-11.35-4.6T27.1,30.8v-.689q0-7.3,3.983-11.907t11.28-4.614q6.166,0,9.848,3.455t3.558,9.4l-.058.182H46.464a6.442,6.442,0,0,0-1.015-3.768,3.5,3.5,0,0,0-3.083-1.457,4.1,4.1,0,0,0-4.024,2.373,14.639,14.639,0,0,0-1.156,6.336v.693a14.576,14.576,0,0,0,1.156,6.4,4.191,4.191,0,0,0,4.115,2.311M78.216,23.148l-3.682-.029a6.048,6.048,0,0,0-2.844.586,3.739,3.739,0,0,0-1.647,1.667V46.7H59.932V14.2H69.45l.359,4.775A9.771,9.771,0,0,1,72.5,15.013,5.9,5.9,0,0,1,76.421,13.6a11.528,11.528,0,0,1,2.782.359l-.986,9.192Zm19.2,9.221.033.244h.182L102.989,14.2h10.777l-12.9,37.34a17.959,17.959,0,0,1-3.859,5.943q-2.371,2.353-7.512,2.348a11.761,11.761,0,0,1-2.159-.165q-1.322-.277-2.629-.615l1.226-7.21.627.132a2.621,2.621,0,0,0,.537.05,6.659,6.659,0,0,0,3.5-.714,4.17,4.17,0,0,0,1.643-2.13l.809-2.113L81.865,14.2H92.608l4.817,18.173ZM136.3,30.507a15.384,15.384,0,0,0-1.2-6.6,3.989,3.989,0,0,0-3.83-2.5,6.015,6.015,0,0,0-2.889.631,4.668,4.668,0,0,0-1.87,1.833V37.449a4.382,4.382,0,0,0,1.9,1.56,7.345,7.345,0,0,0,2.918.512,3.982,3.982,0,0,0,3.818-2.208,13.564,13.564,0,0,0,1.152-6.175v-.631Zm10.083.631q0,7.33-3.29,11.763a10.891,10.891,0,0,1-9.278,4.429,8.816,8.816,0,0,1-7.3-3.512V59.2H116.4v-45h9.456l.359,3.574a10.082,10.082,0,0,1,3.232-3.1,8.435,8.435,0,0,1,4.309-1.081,10.768,10.768,0,0,1,9.324,4.66q3.3,4.656,3.3,12.258v.627ZM162.811,6.114V14.2h5.477v7.029h-5.477v14.9a3.669,3.669,0,0,0,.7,2.509,2.447,2.447,0,0,0,1.9.768,14.431,14.431,0,0,0,1.515-.062c.367-.041.842-.124,1.42-.239l.718,7.512a28.684,28.684,0,0,1-3.021.553,26.228,26.228,0,0,1-3.174.165q-5,0-7.57-2.675t-2.576-8.469V21.224h-4.548V14.2h4.548V6.11h10.087Zm18.107,24.665a13.453,13.453,0,0,0,1.271,6.414,4.522,4.522,0,0,0,4.321,2.328,4.474,4.474,0,0,0,4.251-2.344,13.4,13.4,0,0,0,1.288-6.4v-.631a13.477,13.477,0,0,0-1.288-6.356,4.508,4.508,0,0,0-4.309-2.386,4.44,4.44,0,0,0-4.264,2.4,13.545,13.545,0,0,0-1.275,6.34v.631ZM170.8,30.148q0-7.33,4.127-11.94t11.524-4.614q7.423,0,11.552,4.614t4.127,11.94v.631q0,7.355-4.127,11.957T186.51,47.33q-7.448,0-11.581-4.594T170.8,30.779ZM215.9,14.2l.392,4.565a11.625,11.625,0,0,1,3.921-3.8,10.079,10.079,0,0,1,5.2-1.37,9.308,9.308,0,0,1,7.437,3.1q2.681,3.1,2.683,9.856V46.7H225.41V26.516q0-2.8-1.147-3.954a4.6,4.6,0,0,0-3.4-1.156,5.527,5.527,0,0,0-4.371,1.923V46.7H206.412V14.2Zm39.2,7.21a3.738,3.738,0,0,0-3.277,1.56,8.574,8.574,0,0,0-1.333,4.177l.091.149h8.709v-.78a6.112,6.112,0,0,0-1.015-3.785,3.757,3.757,0,0,0-3.174-1.321m.718,25.92q-7.151,0-11.416-4.5a15.784,15.784,0,0,1-4.264-11.3V30.387q0-7.423,3.876-12.122T255.1,13.6q6.581,0,10.323,3.962t3.743,10.756v5.316H250.674l-.062.182a6.651,6.651,0,0,0,2.031,4.1,6.374,6.374,0,0,0,4.548,1.6,18.756,18.756,0,0,0,4.594-.45,32.759,32.759,0,0,0,4.354-1.56l2.394,6.187a18.175,18.175,0,0,1-5.489,2.6,24.45,24.45,0,0,1-7.223,1.032m45.422-14.293h.182l3.5-18.837h9.336l-7.6,32.507H298.1l-5.271-17.244h-.177l-5.3,17.244h-8.527L271.2,14.2h9.34l3.558,18.986h.182L289.541,14.2h6.377Zm33.518,4.536a2.645,2.645,0,0,0-1.362-2.146,14.6,14.6,0,0,0-4.953-1.7q-5.659-1.114-8.531-3.455a7.812,7.812,0,0,1-2.869-6.4,9.153,9.153,0,0,1,3.591-7.285q3.591-2.99,9.724-2.988,6.463,0,10.294,2.9a8.544,8.544,0,0,1,3.653,7.5l-.062.182H334.43a4.019,4.019,0,0,0-.974-2.918,4.235,4.235,0,0,0-3.124-.991,4.094,4.094,0,0,0-2.666.875,2.724,2.724,0,0,0-1.077,2.221,2.637,2.637,0,0,0,1.242,2.192,13.937,13.937,0,0,0,5.015,1.622q5.925,1.176,8.783,3.5a8.031,8.031,0,0,1,2.856,6.6,8.609,8.609,0,0,1-3.876,7.223q-3.876,2.848-10.248,2.84-6.612,0-10.459-3.364t-3.669-7.512l.062-.177h9.163a4.072,4.072,0,0,0,1.387,3.335,6.1,6.1,0,0,0,3.785,1.019,5.043,5.043,0,0,0,3.083-.8,2.682,2.682,0,0,0,1.048-2.27" transform="translate(-27.103 -6.11)" fill="#151011" fill-rule="evenodd"/>
  </g>
  <g id="Group_46" data-name="Group 46" transform="translate(49.338 49.528)">
    <path id="Path_195" data-name="Path 195" d="M0,24.764H49.338L24.669,0Z" fill-rule="evenodd" fill="url(#linear-gradient)"/>
  </g>
  <g id="Group_47" data-name="Group 47" transform="translate(0 24.764)">
    <path id="Path_196" data-name="Path 196" d="M0,49.528,24.669,24.764,0,0Z" fill-rule="evenodd" fill="url(#linear-gradient-2)"/>
  </g>
  <g id="Group_48" data-name="Group 48" transform="translate(49.338 24.764)">
    <path id="Path_197" data-name="Path 197" d="M0,0,24.669,24.764,49.338,0Z" fill-rule="evenodd" fill="url(#linear-gradient)"/>
  </g>
  <g id="Group_49" data-name="Group 49" transform="translate(24.669)">
    <path id="Path_198" data-name="Path 198" d="M0,0,24.669,24.764,49.338,0Z" fill-rule="evenodd" fill="url(#linear-gradient-4)"/>
  </g>
  <g id="Group_50" data-name="Group 50" transform="translate(49.338 74.292)">
    <path id="Path_199" data-name="Path 199" d="M0,0,24.669,24.764,49.338,0Z" fill-rule="evenodd" fill="url(#linear-gradient-5)"/>
  </g>
  <g id="Group_51" data-name="Group 51" transform="translate(0 74.292)">
    <path id="Path_200" data-name="Path 200" d="M0,0,24.669,24.764,49.338,0Z" fill-rule="evenodd" fill="url(#linear-gradient-6)"/>
  </g>
  <g id="Group_52" data-name="Group 52" transform="translate(49.338)">
    <path id="Path_201" data-name="Path 201" d="M24.669,0,0,24.764H49.338Z" fill-rule="evenodd" fill="url(#linear-gradient-5)"/>
  </g>
  <g id="Group_53" data-name="Group 53">
    <path id="Path_202" data-name="Path 202" d="M24.669,0,0,24.764H49.338Z" fill-rule="evenodd" fill="url(#linear-gradient-6)"/>
  </g>
  <g id="Group_54" data-name="Group 54" transform="translate(24.669 74.292)">
    <path id="Path_203" data-name="Path 203" d="M0,24.764H49.338L24.669,0Z" fill-rule="evenodd" fill="url(#linear-gradient-4)"/>
  </g>
  <g id="Group_55" data-name="Group 55" transform="translate(0 49.528)">
    <path id="Path_204" data-name="Path 204" d="M0,24.764H49.338L24.669,0Z" fill-rule="evenodd" fill="url(#linear-gradient-10)"/>
  </g>
  <g id="Group_56" data-name="Group 56" transform="translate(0 24.764)">
    <path id="Path_205" data-name="Path 205" d="M0,0,24.669,24.764,49.338,0Z" fill-rule="evenodd" fill="url(#linear-gradient-10)"/>
  </g>
</svg>
